<?xml version="1.0" encoding="utf-8"?>
<!-- Svg Vector Icons : http://www.onlinewebfonts.com/icon -->
<!DOCTYPE svg PUBLIC "-//W3C//DTD SVG 1.1//EN" "http://www.w3.org/Graphics/SVG/1.1/DTD/svg11.dtd">
<svg version="1.1" xmlns="http://www.w3.org/2000/svg" xmlns:xlink="http://www.w3.org/1999/xlink" x="0px" y="0px" viewBox="0 0 1000 1000" enable-background="new 0 0 1000 1000" xml:space="preserve">
<metadata> Svg Vector Icons : http://www.onlinewebfonts.com/icon </metadata>
<g><g><path d="M293,606.5l93.8,185.9c2.2,4.3,6.7,7.1,11.6,7.1h202.2c4.9,0,9.4-2.8,11.6-7.1l93.3-185.2c81.8-63.9,128.6-159.8,128.6-263C834.2,159.9,684.2,10,500,10c-184.2,0-334.1,149.9-334.1,334.2C165.9,447.1,212.2,542.7,293,606.5z M500,36C670,36,808.2,174.2,808.2,344.2c0,96.3-44,185.3-120.9,244.3c-1.6,1.2-2.8,2.8-3.6,4.4l-91.1,180.6H406.4l-91.5-181.4c-0.9-1.7-2.1-3.2-3.7-4.4c-75.9-58.9-119.4-147.7-119.4-243.6C191.8,174.2,330.1,36,500,36z"/><path d="M411.2,875.3c-7.2,0-13,5.8-13,13c0,56.1,45.7,101.7,101.8,101.7c56.1,0,101.7-45.6,101.7-101.7c0-7.1-5.8-13-13-13H411.2z M500,964c-36.8,0-68.4-26.8-74.7-62.8h149.4C568.5,937.2,536.9,964,500,964z"/><path d="M619.3,838.2c0-7.2-5.8-13-13-13H393.8c-7.2,0-13,5.8-13,13c0,7.2,5.8,13,13,13h212.5C613.5,851.2,619.3,845.4,619.3,838.2z"/></g><g></g><g></g><g></g><g></g><g></g><g></g><g></g><g></g><g></g><g></g><g></g><g></g><g></g><g></g><g></g></g>
</svg>