<?xml version="1.0" encoding="utf-8"?>
<!-- Svg Vector Icons : http://www.onlinewebfonts.com/icon -->
<!DOCTYPE svg PUBLIC "-//W3C//DTD SVG 1.1//EN" "http://www.w3.org/Graphics/SVG/1.1/DTD/svg11.dtd">
<svg version="1.1" xmlns="http://www.w3.org/2000/svg" xmlns:xlink="http://www.w3.org/1999/xlink" x="0px" y="0px" viewBox="0 0 1000 1000" enable-background="new 0 0 1000 1000" xml:space="preserve">
<metadata> Svg Vector Icons : http://www.onlinewebfonts.com/icon </metadata>
<g><path d="M115.9,510.2C57.4,510.2,10,557.3,10,615.5c0,58.2,47.4,105.3,105.9,105.3c42.7,0,79.5-25.1,96.2-61.3c0,0,2-4.6,7.4-6.6c5.4-2,44.3,6.6,44.3,6.6v-85.1c0,0-36.7,6.3-42.8,5c-6.1-1.3-7.7-5-7.7-5C197.4,536.7,159.8,510.2,115.9,510.2z"/><path d="M719.2,115.3C719.2,57.1,671.8,10,613.3,10c-58.5,0-105.9,47.1-105.9,105.3c0,42.4,25.3,79,61.7,95.7c0,0,4.6,2,6.7,7.4c2.1,5.3-6.7,44.1-6.7,44.1h85.6c0,0-6.3-36.5-5-42.6c1.3-6.1,5-7.6,5-7.6C692.6,196.3,719.2,158.9,719.2,115.3z"/><path d="M962.3,652.9c-5.4,2-7.4,6.6-7.4,6.6c-16.8,36.2-53.5,61.3-96.2,61.3c-58.5,0-105.9-47.2-105.9-105.3c0-58.2,47.4-105.3,105.9-105.3c43.8,0,81.4,26.5,97.5,64.2c0,0,1.5,3.7,7.7,5c3.3,0.7,15.6-0.8,26.2-2.4V324.2c0-45.8-37.7-83.2-83.7-83.2h-586c-46,0-83.7,37.4-83.7,83.2v582.5c0,45.8,37.7,83.2,83.7,83.2h251.3c2.4-11.8,5.4-28.4,4.1-31.8c-2.1-5.3-6.7-7.4-6.7-7.4c-36.4-16.7-61.7-53.2-61.7-95.7c0-58.2,47.4-105.3,105.9-105.3c58.5,0,105.9,47.2,105.9,105.3c0,43.6-26.6,81-64.6,97c0,0-3.8,1.5-5,7.6c-0.8,3.8,1.3,19.1,3,30.3h253.6c46,0,83.7-37.4,83.7-83.2V656.1C978.7,653.9,965.3,651.8,962.3,652.9z"/></g>
</svg>